<?xml version="1.0" standalone="no"?><!DOCTYPE svg PUBLIC "-//W3C//DTD SVG 1.1//EN" "http://www.w3.org/Graphics/SVG/1.1/DTD/svg11.dtd"><svg t="1684290040804" class="icon" viewBox="0 0 1024 1024" version="1.1" xmlns="http://www.w3.org/2000/svg" p-id="3239" xmlns:xlink="http://www.w3.org/1999/xlink" width="200" height="200"><path d="M733.66 980.12c-175.82 0-248.17-147.3-267.02-192.42a55.586 55.586 0 0 1 0-40.87c18.85-45.13 91.2-192.42 267.02-192.42 175 0 248.17 147.3 267.02 192.42 5.19 13.35 5.19 27.54 0 40.87-18.85 45.12-92.02 192.42-267.02 192.42zM502.65 760.3a18.369 18.369 0 0 0 0 13.1c15.83 40.11 79.59 168.02 231.01 168.02s215.18-127.91 231.01-167.19c1.61-4.22 1.61-8.88 0-13.1-15.83-40.11-79.59-168.02-231.01-168.02S518.48 721.02 502.65 760.3z m231.01 103.72c-53.33 0-96.75-43.74-96.75-96.75 0-53.02 43.42-96.75 96.75-96.75s96.75 43.73 96.75 96.75c0 53.01-43.42 96.75-96.75 96.75z m0-154.81c-31.81 0-58.05 25.93-58.05 58.05s25.93 58.05 58.05 58.05 58.05-25.93 58.05-58.05-26.24-58.05-58.05-58.05z m0 0" p-id="3240"></path><path d="M557.83 131.94V134a66.49 66.49 0 0 0-40.68-39.86c-9.17-26.75-34.3-44.75-62.58-44.82H248.04c-28.91 0-53.7 18.79-62.58 44.82A66.465 66.465 0 0 0 144.78 134v-2.07c-70.63 0-128.04 57.41-128.04 128.04v454.35c0 70.63 57.41 128.04 128.04 128.04h224.78a429.98 429.98 0 0 1 7.5-49.57H144.78c-43.37 0-78.48-35.11-78.48-78.48V259.98c0-43.37 35.11-78.48 78.48-78.48v-2.48c9.29 25.4 33.46 43.78 61.96 43.78h289.13c28.5 0 52.66-18.38 61.96-43.78v2.48c43.37 0 78.48 35.11 78.48 78.48v224.47a424.764 424.764 0 0 1 49.57-16.5V259.98c-0.01-70.63-57.42-128.04-128.05-128.04z m-61.96 41.3H206.74c-9.09 0-16.52-7.43-16.52-16.52s7.43-16.52 16.52-16.52h24.78v-24.78c0-9.09 7.43-16.52 16.52-16.52h206.52c9.09 0 16.52 7.43 16.52 16.52v24.78h24.78c9.09 0 16.52 7.43 16.52 16.52 0.01 9.09-7.42 16.52-16.51 16.52z m41.3 165.22H165.43c-13.63 0-24.78 11.15-24.78 24.78s11.15 24.78 24.78 24.78h371.74c13.63 0 24.78-11.15 24.78-24.78s-11.15-24.78-24.78-24.78zM140.65 652.37c0 13.63 11.15 24.78 24.78 24.78h254.4a428.962 428.962 0 0 1 31.66-49.57H165.43c-13.63 0.01-24.78 11.16-24.78 24.79z m396.52-169.34H165.43c-13.63 0-24.78 11.15-24.78 24.78s11.15 24.78 24.78 24.78h371.74c13.63 0 24.78-11.15 24.78-24.78 0.01-13.63-11.15-24.78-24.78-24.78z" fill="#040000" p-id="3241"></path></svg>