<?xml version="1.0" standalone="no"?><!DOCTYPE svg PUBLIC "-//W3C//DTD SVG 1.1//EN" "http://www.w3.org/Graphics/SVG/1.1/DTD/svg11.dtd"><svg t="1684910170109" class="icon" viewBox="0 0 1024 1024" version="1.1" xmlns="http://www.w3.org/2000/svg" p-id="1814" xmlns:xlink="http://www.w3.org/1999/xlink" width="200" height="200"><path d="M811.707317 1024h-599.414634C94.907317 1024 0 929.092683 0 811.707317v-599.414634C0 94.907317 94.907317 0 212.292683 0h599.414634C929.092683 0 1024 94.907317 1024 212.292683v599.414634c0 117.385366-94.907317 212.292683-212.292683 212.292683zM212.292683 24.97561C109.892683 24.97561 24.97561 109.892683 24.97561 212.292683v599.414634C24.97561 914.107317 109.892683 999.02439 212.292683 999.02439h599.414634c102.4 0 187.317073-84.917073 187.317073-187.317073v-599.414634C999.02439 109.892683 914.107317 24.97561 811.707317 24.97561h-599.414634z" p-id="1815"></path><path d="M801.717073 814.204878c42.458537 29.970732 139.863415 84.917073 189.814634 102.4l-114.887805 92.409756c-24.97561-7.492683-52.44878-17.482927-77.42439-32.468293-4.995122-2.497561-44.956098-27.473171-114.887805-74.926829-57.443902 24.97561-117.385366 37.463415-187.317073 37.463415-132.370732 0-234.770732-39.960976-309.697561-117.385366S74.926829 634.380488 74.926829 494.517073s37.463415-249.756098 112.390244-327.180488S364.643902 49.95122 492.019512 49.95122s227.278049 39.960976 302.204878 117.385365 112.390244 187.317073 112.390244 327.180488c0 74.926829-9.990244 139.863415-29.970732 194.809756-14.985366 44.956098-39.960976 84.917073-74.926829 124.878049z m-137.365853-97.404878c22.478049-24.97561 39.960976-57.443902 49.951219-94.907317s17.482927-79.921951 17.482927-127.37561c0-99.902439-22.478049-172.331707-64.936586-222.282927S564.44878 199.804878 494.517073 199.804878s-127.37561 24.97561-172.331707 74.926829-64.936585 122.380488-64.936586 222.282927 22.478049 174.829268 64.936586 224.780488 99.902439 74.926829 167.336585 74.926829c24.97561 0 47.453659-4.995122 69.931708-12.487805-34.965854-22.478049-69.931707-39.960976-107.395122-54.946341l47.453658-99.902439c57.443902 19.980488 112.390244 49.95122 164.839025 87.414634z" p-id="1816"></path></svg>